# xmcd
#
# Track frame offsets:
# 150
# 15912
# 27503
# 40957
# 51682
# 64311
# 75341
# 90998
#
# Disc length: 1428 seconds
#
#
# Revision: 0
# Processed by: cddbd v1.5.2PL0 Copyright (c) Steve Scherf et al.
# Submitted via: FreeRIP 2.35 
#
DISCID=5c059208
DTITLE=Howie Reed - In The Honk Tonk Downstairs
DYEAR=2006
DGENRE=Country
TTITLE0=Coca Cola Cowboy
TTITLE1=Love Bug
TTITLE2=Linda On My Mind
TTITLE3=Hot Burning Flames
TTITLE4=Barmaind in the Honky Tonk Downstairs
TTITLE5=My Heart Wont Wander
TTITLE6=Will you Visit Me On Sunday
TTITLE7=I Found Jesus On The Jail House Floor
EXTD=
EXTT0=Howie Reed - In The Honky Tonk Upstairs
EXTT1=Howie Reed - In The Honky Tonk Upstairs
EXTT2=Howie Reed - In The Honky Tonk Upstairs
EXTT3=Howie Reed - In The Honky Tonk Upstairs
EXTT4=Howie Reed - In The Honky Tonk Upstairs
EXTT5=Howie Reed - In The Honky Tonk Upstairs
EXTT6=Howie Reed - In The Honky Tonk Upstairs
EXTT7=Howie Reed - In The Honky Tonk Upstairs
PLAYORDER=
